<svg enable-background="new 0 0 24 24" height="512" viewBox="0 0 24 24" width="512" xmlns="http://www.w3.org/2000/svg"><path d="m12 9c-.553 0-1 .448-1 1v12c0 .552.447 1 1 1s1-.448 1-1v-12c0-.552-.447-1-1-1z"/><path d="m21.81 8.44-6.331 6.333c-.013.011-.095.083-.107.095-.24.238-.372.551-.372.882 0 .31.113.607.33.85l6.491 6.991c.231.256.577.409.929.409.689 0 1.25-.561 1.25-1.25v-13.5c0-1.019-1.265-1.766-2.19-.81z"/><path d="m2.229 8.481c-.012-.014-.085-.098-.099-.111-.238-.239-.551-.37-.88-.37-.689 0-1.25.561-1.25 1.25v13.5c0 .689.561 1.25 1.25 1.25.352 0 .698-.153.92-.4l6.51-7.011c.207-.232.32-.529.32-.839 0-.331-.132-.644-.439-.94z"/><path d="m20 6.25v-5.5c0-.303-.183-.577-.463-.693-.28-.117-.603-.052-.817.163l-1.833 1.833c-1.679-1.304-3.744-2.053-5.887-2.053-2.925 0-5.666 1.324-7.52 3.634-.346.43-.277 1.06.154 1.406.432.347 1.061.278 1.405-.154 1.473-1.834 3.646-2.886 5.961-2.886 1.611 0 3.168.537 4.463 1.477l-2.243 2.243c-.215.214-.278.537-.163.817.116.28.389.463.693.463h5.5c.414 0 .75-.336.75-.75z"/></svg>